rotated_Sprint_05400001_forces_filt5Hz.mot
version=1
nRows=52
nColumns=19
inDegrees=yes
endheader
time	R_ground_force_vx	R_ground_force_vy	R_ground_force_vz	R_ground_force_px	R_ground_force_py	R_ground_force_pz	R_ground_torque_x	R_ground_torque_y	R_ground_torque_z	L_ground_force_vx	L_ground_force_vy	L_ground_force_vz	L_ground_force_px	L_ground_force_py	L_ground_force_pz	L_ground_torque_x	L_ground_torque_y	L_ground_torque_z	
1.809500	-213.874941	1652.005501	-34.113529	  0.896080	  0.000000	 -0.252383	  0.000000	  7.658420	  0.000000	  0.000000	  0.000000	  0.000000	  0.273508	  0.000000	 -0.468599	  0.000000	  0.000000	  0.000000
1.810000	-213.982315	1663.828435	-33.883090	  0.894995	  0.000000	 -0.252428	  0.000000	  7.662124	  0.000000	  0.000000	  0.000000	  0.000000	  0.275190	  0.000000	 -0.468373	  0.000000	  0.000000	  0.000000
1.810500	-214.055288	1675.576127	-33.650712	  0.893909	  0.000000	 -0.252472	  0.000000	  7.663845	  0.000000	  0.000000	  0.000000	  0.000000	  0.276907	  0.000000	 -0.467974	  0.000000	  0.000000	  0.000000
1.811000	-214.093286	1687.247024	-33.416751	  0.892821	  0.000000	 -0.252516	  0.000000	  7.663664	  0.000000	  0.000000	  0.000000	  0.000000	  0.278625	  0.000000	 -0.467574	  0.000000	  0.000000	  0.000000
1.811500	-214.095743	1698.839588	-33.181561	  0.891732	  0.000000	 -0.252559	  0.000000	  7.661670	  0.000000	  0.000000	  0.000000	  0.000000	  0.280343	  0.000000	 -0.467174	  0.000000	  0.000000	  0.000000
1.812000	-214.062109	1710.352288	-32.945492	  0.890642	  0.000000	 -0.252602	  0.000000	  7.657954	  0.000000	  0.000000	  0.000000	  0.000000	  0.282060	  0.000000	 -0.466775	  0.000000	  0.000000	  0.000000
1.812500	-213.991850	1721.783602	-32.708891	  0.889550	  0.000000	 -0.252644	  0.000000	  7.652613	  0.000000	  0.000000	  0.000000	  0.000000	  0.283778	  0.000000	 -0.466375	  0.000000	  0.000000	  0.000000
1.813000	-213.884447	1733.132014	-32.472102	  0.888457	  0.000000	 -0.252686	  0.000000	  7.645747	  0.000000	  0.000000	  0.000000	  0.000000	  0.285495	  0.000000	 -0.465976	  0.000000	  0.000000	  0.000000
1.813500	-213.739404	1744.396012	-32.235460	  0.887362	  0.000000	 -0.252728	  0.000000	  7.637459	  0.000000	  0.000000	  0.000000	  0.000000	  0.287212	  0.000000	 -0.465577	  0.000000	  0.000000	  0.000000
1.814000	-213.556243	1755.574091	-31.999295	  0.886265	  0.000000	 -0.252769	  0.000000	  7.627853	  0.000000	  0.000000	  0.000000	  0.000000	  0.288930	  0.000000	 -0.465177	  0.000000	  0.000000	  0.000000
1.814500	-213.334507	1766.664747	-31.763929	  0.885167	  0.000000	 -0.252810	  0.000000	  7.617035	  0.000000	  0.000000	  0.000000	  0.000000	  0.290648	  0.000000	 -0.464777	  0.000000	  0.000000	  0.000000
1.815000	-213.073766	1777.666479	-31.529675	  0.884067	  0.000000	 -0.252850	  0.000000	  7.605110	  0.000000	  0.000000	  0.000000	  0.000000	  0.292365	  0.000000	 -0.464378	  0.000000	  0.000000	  0.000000
1.815500	-212.773610	1788.577790	-31.296835	  0.882965	  0.000000	 -0.252890	  0.000000	  7.592185	  0.000000	  0.000000	  0.000000	  0.000000	  0.294112	  0.000000	 -0.463806	  0.000000	  0.000000	  0.000000
1.816000	-212.433652	1799.397181	-31.065704	  0.881861	  0.000000	 -0.252930	  0.000000	  7.578363	  0.000000	  0.000000	  0.000000	  0.000000	  0.295859	  0.000000	 -0.463235	  0.000000	  0.000000	  0.000000
1.816500	-212.053531	1810.123157	-30.836565	  0.880755	  0.000000	 -0.252969	  0.000000	  7.563750	  0.000000	  0.000000	  0.000000	  0.000000	  0.297605	  0.000000	 -0.462663	  0.000000	  0.000000	  0.000000
1.817000	-211.632908	1820.754219	-30.609692	  0.879646	  0.000000	 -0.253008	  0.000000	  7.548446	  0.000000	  0.000000	  0.000000	  0.000000	  0.299352	  0.000000	 -0.462092	  0.000000	  0.000000	  0.000000
1.817500	-211.171469	1831.288871	-30.385347	  0.878536	  0.000000	 -0.253047	  0.000000	  7.532555	  0.000000	  0.000000	  0.000000	  0.000000	  0.301099	  0.000000	 -0.461520	  0.000000	  0.000000	  0.000000
1.818000	-210.668924	1841.725614	-30.163783	  0.877424	  0.000000	 -0.253086	  0.000000	  7.516175	  0.000000	  0.000000	  0.000000	  0.000000	  0.302846	  0.000000	 -0.460948	  0.000000	  0.000000	  0.000000
1.818500	-210.125004	1852.062949	-29.945240	  0.876309	  0.000000	 -0.253124	  0.000000	  7.499403	  0.000000	  0.000000	  0.000000	  0.000000	  0.304593	  0.000000	 -0.460377	  0.000000	  0.000000	  0.000000
1.819000	-209.539465	1862.299376	-29.729945	  0.875192	  0.000000	 -0.253162	  0.000000	  7.482334	  0.000000	  0.000000	  0.000000	  0.000000	  0.306339	  0.000000	 -0.459805	  0.000000	  0.000000	  0.000000
1.819500	-208.912084	1872.433393	-29.518113	  0.874073	  0.000000	 -0.253200	  0.000000	  7.465059	  0.000000	  0.000000	  0.000000	  0.000000	  0.308086	  0.000000	 -0.459234	  0.000000	  0.000000	  0.000000
1.820000	-208.242661	1882.463499	-29.309942	  0.872951	  0.000000	 -0.253237	  0.000000	  7.447666	  0.000000	  0.000000	  0.000000	  0.000000	  0.309833	  0.000000	 -0.458662	  0.000000	  0.000000	  0.000000
1.820500	-207.531015	1892.388192	-29.105613	  0.871827	  0.000000	 -0.253274	  0.000000	  7.430237	  0.000000	  0.000000	  0.000000	  0.000000	  0.311582	  0.000000	 -0.457917	  0.000000	  0.000000	  0.000000
1.821000	-206.776986	1902.205972	-28.905294	  0.870700	  0.000000	 -0.253311	  0.000000	  7.412849	  0.000000	  0.000000	  0.000000	  0.000000	  0.313332	  0.000000	 -0.457171	  0.000000	  0.000000	  0.000000
1.821500	-205.980430	1911.915340	-28.709130	  0.869571	  0.000000	 -0.253348	  0.000000	  7.395574	  0.000000	  0.000000	  0.000000	  0.000000	  0.315081	  0.000000	 -0.456426	  0.000000	  0.000000	  0.000000
1.822000	-205.141223	1921.514800	-28.517255	  0.868439	  0.000000	 -0.253385	  0.000000	  7.378477	  0.000000	  0.000000	  0.000000	  0.000000	  0.316831	  0.000000	 -0.455680	  0.000000	  0.000000	  0.000000
1.822500	-204.259257	1931.002861	-28.329782	  0.867304	  0.000000	 -0.253421	  0.000000	  7.361613	  0.000000	  0.000000	  0.000000	  0.000000	  0.318581	  0.000000	 -0.454935	  0.000000	  0.000000	  0.000000
1.823000	-203.334441	1940.378040	-28.146811	  0.866167	  0.000000	 -0.253457	  0.000000	  7.345035	  0.000000	  0.000000	  0.000000	  0.000000	  0.320330	  0.000000	 -0.454190	  0.000000	  0.000000	  0.000000
1.823500	-202.366700	1949.638863	-27.968426	  0.865027	  0.000000	 -0.253493	  0.000000	  7.328782	  0.000000	  0.000000	  0.000000	  0.000000	  0.322079	  0.000000	 -0.453444	  0.000000	  0.000000	  0.000000
1.824000	-201.355977	1958.783869	-27.794694	  0.863884	  0.000000	 -0.253529	  0.000000	  7.312891	  0.000000	  0.000000	  0.000000	  0.000000	  0.323829	  0.000000	 -0.452699	  0.000000	  0.000000	  0.000000
1.824500	-200.302229	1967.811612	-27.625670	  0.862738	  0.000000	 -0.253565	  0.000000	  7.297387	  0.000000	  0.000000	  0.000000	  0.000000	  0.325579	  0.000000	 -0.451953	  0.000000	  0.000000	  0.000000
1.825000	-199.205429	1976.720660	-27.461389	  0.861589	  0.000000	 -0.253600	  0.000000	  7.282290	  0.000000	  0.000000	  0.000000	  0.000000	  0.327328	  0.000000	 -0.451208	  0.000000	  0.000000	  0.000000
1.825500	-198.065569	1985.509600	-27.301872	  0.860438	  0.000000	 -0.253635	  0.000000	  7.267612	  0.000000	  0.000000	  0.000000	  0.000000	  0.329132	  0.000000	 -0.450281	  0.000000	  0.000000	  0.000000
1.826000	-196.882649	1994.177034	-27.147119	  0.859284	  0.000000	 -0.253670	  0.000000	  7.253357	  0.000000	  0.000000	  0.000000	  0.000000	  0.330936	  0.000000	 -0.449354	  0.000000	  0.000000	  0.000000
1.826500	-195.656689	2002.721584	-26.997110	  0.858126	  0.000000	 -0.253705	  0.000000	  7.239525	  0.000000	  0.000000	  0.000000	  0.000000	  0.332740	  0.000000	 -0.448426	  0.000000	  0.000000	  0.000000
1.827000	-194.387719	2011.141888	-26.851804	  0.856966	  0.000000	 -0.253739	  0.000000	  7.226106	  0.000000	  0.000000	  0.000000	  0.000000	  0.334544	  0.000000	 -0.447499	  0.000000	  0.000000	  0.000000
1.827500	-193.075786	2019.436609	-26.711139	  0.855803	  0.000000	 -0.253774	  0.000000	  7.213088	  0.000000	  0.000000	  0.000000	  0.000000	  0.336347	  0.000000	 -0.446572	  0.000000	  0.000000	  0.000000
1.828000	-191.720950	2027.604427	-26.575032	  0.854637	  0.000000	 -0.253808	  0.000000	  7.200451	  0.000000	  0.000000	  0.000000	  0.000000	  0.338151	  0.000000	 -0.445645	  0.000000	  0.000000	  0.000000
1.828500	-190.323288	2035.644046	-26.443380	  0.853468	  0.000000	 -0.253842	  0.000000	  7.188169	  0.000000	  0.000000	  0.000000	  0.000000	  0.339955	  0.000000	 -0.444718	  0.000000	  0.000000	  0.000000
1.829000	-188.882893	2043.554194	-26.316060	  0.852296	  0.000000	 -0.253876	  0.000000	  7.176214	  0.000000	  0.000000	  0.000000	  0.000000	  0.341759	  0.000000	 -0.443790	  0.000000	  0.000000	  0.000000
1.829500	-187.399876	2051.333620	-26.192937	  0.851120	  0.000000	 -0.253910	  0.000000	  7.164552	  0.000000	  0.000000	  0.000000	  0.000000	  0.343563	  0.000000	 -0.442863	  0.000000	  0.000000	  0.000000
1.830000	-185.874365	2058.981098	-26.073856	  0.849942	  0.000000	 -0.253943	  0.000000	  7.153147	  0.000000	  0.000000	  0.000000	  0.000000	  0.345367	  0.000000	 -0.441936	  0.000000	  0.000000	  0.000000
1.830500	-184.306507	2066.495425	-25.958652	  0.848761	  0.000000	 -0.253977	  0.000000	  7.141960	  0.000000	  0.000000	  0.000000	  0.000000	  0.347239	  0.000000	 -0.440851	  0.000000	  0.000000	  0.000000
1.831000	-182.696468	2073.875423	-25.847148	  0.847577	  0.000000	 -0.254010	  0.000000	  7.130951	  0.000000	  0.000000	  0.000000	  0.000000	  0.349110	  0.000000	 -0.439765	  0.000000	  0.000000	  0.000000
1.831500	-181.044429	2081.119935	-25.739157	  0.846390	  0.000000	 -0.254043	  0.000000	  7.120078	  0.000000	  0.000000	  0.000000	  0.000000	  0.350982	  0.000000	 -0.438680	  0.000000	  0.000000	  0.000000
1.832000	-179.350594	2088.227828	-25.634483	  0.845200	  0.000000	 -0.254076	  0.000000	  7.109300	  0.000000	  0.000000	  0.000000	  0.000000	  0.352853	  0.000000	 -0.437594	  0.000000	  0.000000	  0.000000
1.832500	-177.615182	2095.197995	-25.532922	  0.844007	  0.000000	 -0.254109	  0.000000	  7.098574	  0.000000	  0.000000	  0.000000	  0.000000	  0.354725	  0.000000	 -0.436509	  0.000000	  0.000000	  0.000000
1.833000	-175.838432	2102.029349	-25.434265	  0.842811	  0.000000	 -0.254141	  0.000000	  7.087858	  0.000000	  0.000000	  0.000000	  0.000000	  0.356597	  0.000000	 -0.435424	  0.000000	  0.000000	  0.000000
1.833500	-174.020602	2108.720831	-25.338294	  0.841612	  0.000000	 -0.254173	  0.000000	  7.077111	  0.000000	  0.000000	  0.000000	  0.000000	  0.358468	  0.000000	 -0.434338	  0.000000	  0.000000	  0.000000
1.834000	-172.161972	2115.271406	-25.244788	  0.840411	  0.000000	 -0.254205	  0.000000	  7.066291	  0.000000	  0.000000	  0.000000	  0.000000	  0.360340	  0.000000	 -0.433253	  0.000000	  0.000000	  0.000000
1.834500	-170.262840	2121.680063	-25.153524	  0.839206	  0.000000	 -0.254237	  0.000000	  7.055358	  0.000000	  0.000000	  0.000000	  0.000000	  0.362211	  0.000000	 -0.432167	  0.000000	  0.000000	  0.000000
1.835000	-168.323526	2127.945818	-25.064275	  0.837999	  0.000000	 -0.254269	  0.000000	  7.044273	  0.000000	  0.000000	  0.000000	  0.000000	  0.364083	  0.000000	 -0.431082	  0.000000	  0.000000	  0.000000
